<svg height="384pt" viewBox="0 0 384 384" width="384pt" xmlns="http://www.w3.org/2000/svg"><path d="m22.175781 142.902344c8.222657 3.226562 17.511719-.855469 20.726563-9.078125 24.167968-61.855469 82.691406-101.824219 149.097656-101.824219s124.929688 39.96875 149.097656 101.824219c2.460938 6.320312 8.511719 10.175781 14.910156 10.175781 1.929688 0 3.902344-.351562 5.816407-1.105469 8.230469-3.214843 12.296875-12.496093 9.085937-20.726562-29.015625-74.207031-99.230468-122.167969-178.910156-122.167969s-149.894531 47.960938-178.902344 122.175781c-3.21875 8.230469.847656 17.511719 9.078125 20.726563zm0 0"/><path d="m319.113281 177.480469c-7.242187-63.761719-61.449219-113.480469-127.113281-113.480469s-119.871094 49.71875-127.113281 113.480469c-36.902344 7.085937-64.886719 39.574219-64.886719 78.519531 0 44.113281 35.886719 80 80 80 8.832031 0 16-7.167969 16-16v-128c0-52.9375 43.0625-96 96-96s96 43.0625 96 96v144c0 8.824219-7.175781 16-16 16h-32c-8.824219 0-16-7.175781-16-16 0-8.832031-7.167969-16-16-16s-16 7.167969-16 16c0 26.472656 21.527344 48 48 48h32c26.472656 0 48-21.527344 48-48v-1.609375c36.472656-7.4375 64-39.757813 64-78.390625 0-38.945312-27.984375-71.433594-64.886719-78.519531zm-287.113281 78.519531c0-20.855469 13.382812-38.59375 32-45.199219v90.398438c-18.617188-6.605469-32-24.34375-32-45.199219zm288 45.199219v-90.398438c18.617188 6.605469 32 24.34375 32 45.199219s-13.382812 38.59375-32 45.199219zm0 0"/></svg>