<?xml version="1.0" encoding="utf-8"?>
<!-- Generator: Adobe Illustrator 26.1.0, SVG Export Plug-In . SVG Version: 6.00 Build 0)  -->
<svg version="1.1" id="Capa_1" xmlns="http://www.w3.org/2000/svg" xmlns:xlink="http://www.w3.org/1999/xlink" x="0px" y="0px"
	 viewBox="0 0 32 32" style="enable-background:new 0 0 32 32;" xml:space="preserve">
<style type="text/css">
	.st0{fill:#FFFFFF;}
</style>
<g>
	<g id="Pencil">
		<g>
			<path class="st0" d="M30.3,1.7C29.2,0.6,27.7,0,26.1,0s-3,0.6-4.2,1.7L4.3,19.3c-0.1,0.1-0.2,0.2-0.2,0.4l-4,11
				c-0.1,0.4,0,0.8,0.2,1C0.5,31.9,0.7,32,1,32c0.1,0,0.2,0,0.3,0l9.9-3.1c0.2,0,0.3-0.1,0.4-0.2L30.3,10C31.4,8.9,32,7.4,32,5.9
				C32,4.3,31.4,2.8,30.3,1.7z M10.1,27.2l-3.7,1.1c-0.2-0.6-0.6-1.2-1-1.7c-0.4-0.4-0.9-0.7-1.4-1L5.7,21H8v2c0,0.6,0.4,1,1,1h1.8
				L10.1,27.2z M24.8,12.7L12.6,24.9l0.4-1.6c0.1-0.3,0-0.6-0.2-0.8C12.6,22.1,12.3,22,12,22h-2v-2c0-0.6-0.4-1-1-1H7.4L19.3,7.2
				l0,0c0.7-0.7,1.7-1.1,2.7-1.1s2,0.4,2.7,1.1s1.1,1.7,1.1,2.7C25.9,11,25.5,11.9,24.8,12.7z M28.9,8.6l-0.9,0.9
				c-0.1-1.4-0.7-2.8-1.7-3.8c-1-1-2.4-1.6-3.8-1.7l0.9-0.9l0,0C24.1,2.4,25.1,2,26.1,2s2,0.4,2.7,1.1C29.6,3.9,30,4.8,30,5.9
				C30,6.9,29.6,7.9,28.9,8.6z M22.3,8.3l-10,10c-0.4,0.4-0.4,1,0,1.4c0.2,0.2,0.5,0.3,0.7,0.3s0.5-0.1,0.7-0.3l10-10
				c0.4-0.4,0.4-1,0-1.4C23.3,7.9,22.7,7.9,22.3,8.3z"/>
		</g>
	</g>
</g>
</svg>
