<?xml version="1.0" encoding="utf-8"?>
<!-- Generator: Adobe Illustrator 26.1.0, SVG Export Plug-In . SVG Version: 6.00 Build 0)  -->
<svg version="1.1" id="Capa_1" xmlns="http://www.w3.org/2000/svg" xmlns:xlink="http://www.w3.org/1999/xlink" x="0px" y="0px"
	 viewBox="0 0 452.2 486.6" style="enable-background:new 0 0 452.2 486.6;" xml:space="preserve">
<g>
	<path d="M128.9,320.4H397c30.4,0,55.2-24.8,55.2-55.2V152.4c0-0.1,0-0.3,0-0.4c0-0.3,0-0.5,0-0.8c0-0.2,0-0.4-0.1-0.6
		c0-0.2-0.1-0.5-0.1-0.7s-0.1-0.4-0.1-0.6c-0.1-0.2-0.1-0.4-0.2-0.7c-0.1-0.2-0.1-0.4-0.2-0.6c-0.1-0.2-0.1-0.4-0.2-0.6
		c-0.1-0.2-0.2-0.4-0.3-0.7c-0.1-0.2-0.2-0.4-0.3-0.5c-0.1-0.2-0.2-0.4-0.3-0.6c-0.1-0.2-0.2-0.3-0.3-0.5c-0.1-0.2-0.3-0.4-0.4-0.6
		c-0.1-0.2-0.2-0.3-0.4-0.5c-0.1-0.2-0.3-0.3-0.4-0.5s-0.3-0.3-0.4-0.5s-0.3-0.3-0.4-0.4c-0.2-0.2-0.3-0.3-0.5-0.5
		c-0.2-0.1-0.3-0.3-0.5-0.4c-0.2-0.1-0.4-0.3-0.6-0.4c-0.2-0.1-0.3-0.2-0.5-0.3s-0.4-0.2-0.6-0.4c-0.2-0.1-0.4-0.2-0.6-0.3
		s-0.4-0.2-0.6-0.3s-0.4-0.2-0.6-0.3s-0.4-0.1-0.6-0.2c-0.2-0.1-0.5-0.2-0.7-0.2s-0.4-0.1-0.5-0.1c-0.3-0.1-0.5-0.1-0.8-0.1
		c-0.1,0-0.2-0.1-0.4-0.1L100.8,92.1V44.7c0-0.5,0-1-0.1-1.4c0-0.1,0-0.2-0.1-0.4c0-0.3-0.1-0.6-0.1-0.9c-0.1-0.3-0.1-0.5-0.2-0.8
		c0-0.2-0.1-0.3-0.1-0.5c-0.1-0.3-0.2-0.6-0.3-0.9c0-0.1-0.1-0.3-0.1-0.4c-0.1-0.3-0.2-0.5-0.4-0.8c-0.1-0.1-0.1-0.3-0.2-0.4
		c-0.1-0.2-0.2-0.4-0.4-0.6c-0.1-0.2-0.2-0.3-0.3-0.5s-0.2-0.3-0.3-0.5s-0.3-0.4-0.4-0.6c-0.1-0.1-0.2-0.2-0.3-0.3
		c-0.2-0.2-0.4-0.4-0.6-0.6c-0.1-0.1-0.2-0.2-0.3-0.3c-0.2-0.2-0.4-0.4-0.7-0.6c-0.1-0.1-0.3-0.2-0.4-0.3c-0.2-0.2-0.4-0.3-0.6-0.5
		c-0.3-0.2-0.6-0.4-0.8-0.5c-0.1-0.1-0.2-0.1-0.3-0.2c-0.4-0.2-0.9-0.4-1.3-0.6l-73.7-31C11.9-1.8,4,1.4,1.1,8.3S1.4,23.1,8.3,26
		l65.4,27.6v61.2v9.7v74.4v66.5v84c0,28,21,51.2,48.1,54.7c-4.9,8.2-7.8,17.8-7.8,28c0,30.1,24.5,54.5,54.5,54.5
		s54.5-24.5,54.5-54.5c0-10-2.7-19.5-7.5-27.5h121.4c-4.8,8.1-7.5,17.5-7.5,27.5c0,30.1,24.5,54.5,54.5,54.5s54.5-24.5,54.5-54.5
		s-24.5-54.5-54.5-54.5h-255c-15.6,0-28.2-12.7-28.2-28.2v-36.6C108.9,317.6,118.6,320.4,128.9,320.4z M196.1,432
		c0,15.2-12.4,27.5-27.5,27.5s-27.5-12.4-27.5-27.5s12.4-27.5,27.5-27.5S196.1,416.8,196.1,432z M411.5,432
		c0,15.2-12.4,27.5-27.5,27.5s-27.5-12.4-27.5-27.5s12.4-27.5,27.5-27.5S411.5,416.8,411.5,432z M397,293.4H128.9
		c-15.6,0-28.2-12.7-28.2-28.2v-66.5v-74.4v-5L425.2,164v101.1C425.2,280.8,412.5,293.4,397,293.4z"/>
</g>
</svg>
